# xmcd
#
# Track frame offsets:
#	150
#	13501
#	26331
#	42996
#	57084
#	69065
#	78739
#
# Disc length: 1254 seconds
#
# Revision: 0
# Processed by: cddbd v1.5.2PL0 Copyright (c) Steve Scherf et al.
# Submitted via: dBpowerAMP V4.0
#
DISCID=4a04e407
DTITLE=Bastards of Young - Bastards of Young/ Wolves and Thieves Split
DYEAR=2008
DGENRE=Punk
TTITLE0=Leathal Artificial
TTITLE1=Five To Life
TTITLE2=We Want More
TTITLE3=New Reaction
TTITLE4=Raising East 80
TTITLE5=West Highway Run
TTITLE6=My Brain Is Hanging Upside Down
EXTD=Patrick Hills
EXTT0=
EXTT1=
EXTT2=
EXTT3=
EXTT4=
EXTT5=
EXTT6=
PLAYORDER=
